<svg width="16" height="16" viewBox="0 0 16 16" fill="none" xmlns="http://www.w3.org/2000/svg">
<path d="M6.78402 13.1522L3.92226 10.3263C3.66637 10.0647 3.63615 9.65682 3.85072 9.36041C3.96806 9.18569 4.15973 9.07519 4.36974 9.06119C4.57974 9.04719 4.78438 9.13127 4.92388 9.28887L7.28483 11.6498L14.6539 4.28079C14.9387 4.06717 15.3373 4.09549 15.589 4.34725C15.8408 4.59901 15.8691 4.99757 15.6555 5.28241L7.78564 13.1522C7.65691 13.2925 7.47524 13.3724 7.28483 13.3724C7.09442 13.3724 6.91275 13.2925 6.78402 13.1522Z" fill="#8D8D8D"/>
<path d="M3.70774 13.3665C3.51902 13.3638 3.33902 13.2867 3.20693 13.1519L0.345168 10.2901C0.204869 10.1614 0.125 9.97974 0.125 9.78934C0.125 9.59893 0.204869 9.41726 0.345168 9.28853C0.473895 9.14823 0.65557 9.06836 0.845976 9.06836C1.03638 9.06836 1.21806 9.14823 1.34678 9.28853L4.20854 12.1503C4.34884 12.279 4.42871 12.4607 4.42871 12.6511C4.42871 12.8415 4.34884 13.0232 4.20854 13.1519C4.07645 13.2867 3.89645 13.3638 3.70774 13.3665V13.3665Z" fill="#8D8D8D"/>
<path d="M7.28445 9.78968C7.09574 9.78699 6.91574 9.70984 6.78365 9.57505C6.64334 9.44632 6.56348 9.26464 6.56348 9.07424C6.56348 8.88383 6.64334 8.70216 6.78365 8.57343L11.0763 4.28079C11.3611 4.06717 11.7597 4.09549 12.0114 4.34725C12.2632 4.59901 12.2915 4.99757 12.0779 5.28241L7.78526 9.57504C7.65317 9.70984 7.47316 9.78699 7.28445 9.78968Z" fill="#8D8D8D"/>
</svg>
