<svg width="23" height="23" viewBox="0 0 23 23" fill="none" xmlns="http://www.w3.org/2000/svg">
<mask id="mask0_9785_1460" style="mask-type:alpha" maskUnits="userSpaceOnUse" x="0" y="0" width="23" height="23">
<path d="M0 0H22.9419V22.9403H0V0Z" fill="black"/>
</mask>
<g mask="url(#mask0_9785_1460)">
<path d="M20.3761 16.9967C20.0383 16.16 19.7021 15.3533 19.3903 14.5372C19.3141 14.3375 19.2654 14.0994 19.2962 13.8927C19.3568 13.488 19.707 13.2104 20.1038 13.1782C20.4819 13.1475 20.8479 13.3824 21.0098 13.7776C21.3361 14.5739 21.6553 15.3731 21.9768 16.1714C22.2707 16.9008 22.5566 17.6335 22.8592 18.3593C23.141 19.0351 22.5984 19.6821 21.981 19.6219C21.8092 19.6051 21.6389 19.5282 21.4773 19.4575C19.9948 18.8087 18.5152 18.1535 17.0315 17.5074C16.9417 17.4683 16.8181 17.4646 16.7219 17.4895C16.1918 17.6272 15.6643 17.7757 15.1386 17.9297C15.0625 17.9521 14.9787 18.0097 14.9358 18.0754C13.8157 19.7935 12.2442 20.8885 10.2808 21.428C8.58372 21.8944 6.89562 21.8322 5.22879 21.266C5.09365 21.2201 4.98464 21.224 4.85335 21.2826C3.6739 21.8087 2.49292 22.3315 1.3084 22.8462C0.735761 23.0949 0.169264 22.8361 0.0397272 22.2445C-0.00427338 22.0436 0.0420572 21.7976 0.118543 21.5998C0.495819 20.6242 0.894243 19.6567 1.29276 18.6895C1.35594 18.5362 1.34702 18.4255 1.24916 18.2842C0.360636 17.0006 -0.0611784 15.5715 0.00715243 14.0145C0.0729292 12.5161 0.591795 11.1738 1.51097 9.98674C1.99466 9.36209 2.57137 8.83807 3.21171 8.3787C3.2834 8.32731 3.34851 8.22439 3.36002 8.13782C3.52146 6.924 3.88306 5.78065 4.5156 4.72621C5.265 3.47703 6.25147 2.45843 7.47139 1.66593C8.72218 0.853353 10.085 0.343672 11.564 0.128598C12.4184 0.00434819 13.2754 -0.0480761 14.1282 0.0541737C17.7088 0.483515 20.4701 2.16342 22.1215 5.44362C22.8002 6.79177 23.0466 8.2459 22.9022 9.75688C22.8823 9.96429 22.8774 10.1751 22.835 10.378C22.7343 10.8602 22.2844 11.1826 21.8381 11.1113C21.3304 11.0302 20.9924 10.5776 21.0675 10.0553C21.3317 8.21726 20.8929 6.55241 19.8109 5.0598C18.9792 3.9126 17.8866 3.07829 16.5882 2.51426C15.1933 1.90829 13.7324 1.68116 12.226 1.84655C10.1066 2.07914 8.28903 2.94325 6.8556 4.55124C6.05217 5.45253 5.50996 6.49515 5.25913 7.6742C4.89001 9.40913 5.21441 11.034 6.1485 12.5294C7.38213 14.5042 9.1797 15.6882 11.4418 16.1592C12.4768 16.3747 13.5337 16.4068 14.5749 16.1861C15.2109 16.0513 15.8372 15.8616 16.4561 15.6605C16.79 15.5521 17.0862 15.5596 17.4017 15.7022C18.3553 16.1334 19.3139 16.5531 20.271 16.9766C20.2907 16.9853 20.3142 16.9853 20.3761 16.9967V16.9967ZM2.55627 20.3386C3.24881 20.0321 3.88736 19.7533 4.52241 19.4668C4.8305 19.3278 5.12488 19.3338 5.45036 19.435C6.02215 19.6128 6.60034 19.8071 7.19013 19.8828C8.77886 20.0869 10.2684 19.7477 11.6255 18.889C11.9664 18.6733 12.2722 18.4023 12.5941 18.1567L12.5702 18.1008C10.3839 17.9662 8.41301 17.2618 6.70962 15.8748C4.99942 14.4823 3.90273 12.7063 3.44986 10.5209C3.39936 10.5667 3.36589 10.5946 3.33524 10.6252C1.43865 12.5209 1.27475 15.5078 2.96693 17.5916C3.29532 17.996 3.36549 18.3943 3.15118 18.8697C2.94188 19.334 2.767 19.8139 2.55627 20.3386Z" fill="#373737"/>
<path d="M10.3957 9.08974C10.4001 9.57995 9.99775 9.99085 9.50904 9.99529C9.01888 9.99975 8.60792 9.59739 8.60355 9.10869C8.59908 8.61883 9.00173 8.20754 9.4901 8.20316C9.98029 8.19869 10.3912 8.6011 10.3957 9.08974Z" fill="#373737"/>
<path d="M13.0797 8.20313C13.5683 8.20128 13.9778 8.60714 13.9796 9.09527C13.9814 9.58399 13.5756 9.99346 13.0875 9.99526C12.5988 9.99712 12.1893 9.59116 12.1875 9.10311C12.1857 8.61442 12.5915 8.20496 13.0797 8.20313Z" fill="#373737"/>
<path d="M16.6561 9.99437C16.1687 9.98863 15.7668 9.57535 15.7725 9.08582C15.7782 8.5984 16.1916 8.19643 16.6811 8.20221C17.1685 8.20798 17.5704 8.62126 17.5646 9.11078C17.5589 9.59819 17.1456 10.0002 16.6561 9.99437Z" fill="#373737"/>
</g>
</svg>
