<svg width="112" height="20" viewBox="0 0 112 20" fill="none" xmlns="http://www.w3.org/2000/svg">
<mask id="mask0_9785_1724" style="mask-type:alpha" maskUnits="userSpaceOnUse" x="48" y="1" width="21" height="18">
<path d="M48.2568 1.02344H68.0718V18.8414H48.2568V1.02344Z" fill="black"/>
</mask>
<g mask="url(#mask0_9785_1724)">
<path d="M58.2013 2.99757C59.102 2.03214 60.1621 1.37089 61.4743 1.1211C64.3492 0.574032 67.2272 2.40522 67.8988 5.24219C68.3824 7.28576 67.8417 9.04853 66.4137 10.5613C64.0248 13.0919 61.6362 15.6227 59.2476 18.1538C59.1519 18.2549 59.0618 18.3615 58.9637 18.4599C58.4533 18.9703 57.8941 18.9718 57.3911 18.4439C55.9613 16.9435 54.5359 15.4389 53.1135 13.9313C51.9354 12.6826 50.7212 11.4647 49.6008 10.1658C48.2303 8.57775 47.9263 6.71187 48.6051 4.74951C49.2867 2.77928 50.7131 1.55029 52.7645 1.14472C54.6976 0.762294 56.3947 1.28721 57.8092 2.6774C57.9084 2.77485 58.0083 2.87157 58.1092 2.96705C58.1191 2.9764 58.1373 2.9769 58.2013 2.99757V2.99757ZM58.1757 16.3969C60.5345 13.9035 62.8746 11.4571 65.1797 8.97766C66.0096 8.08507 66.2749 6.9715 65.9906 5.78926C65.3267 3.02661 62.0524 2.07619 59.9751 4.02476C59.6143 4.36314 59.2779 4.72736 58.9221 5.07116C58.4321 5.54513 57.9035 5.54932 57.4118 5.07879C57.0207 4.70448 56.6509 4.30851 56.2591 3.93543C55.6544 3.35957 54.9144 3.05983 54.0947 3.00298C52.6036 2.89913 51.2407 3.71838 50.6051 5.05615C49.965 6.40277 50.1963 7.92487 51.2353 9.04386C52.4766 10.3806 53.7302 11.7063 54.9826 13.0328C56.0317 14.1442 57.0867 15.2501 58.1757 16.3969Z" fill="#363636"/>
</g>
<mask id="mask1_9785_1724" style="mask-type:alpha" maskUnits="userSpaceOnUse" x="97" y="1" width="15" height="19">
<path d="M97.5635 1.02344H111.588V19.4663H97.5635V1.02344Z" fill="black"/>
</mask>
<g mask="url(#mask1_9785_1724)">
<path d="M109.41 1.02344H99.7413C98.5405 1.02344 97.5635 2.00042 97.5635 3.20111V17.5736C97.5635 18.4457 98.2358 19.4594 99.1026 19.4594C99.996 19.4594 100.479 18.8021 100.606 18.5995L104.546 13.05C104.556 13.0364 104.57 13.0331 104.577 13.0322C104.581 13.0317 104.588 13.0319 104.594 13.034L108.525 18.571C108.828 19.0016 109.502 19.4663 110.063 19.4663C111.018 19.4663 111.588 18.5189 111.588 17.6027V3.20111C111.588 2.00042 110.611 1.02344 109.41 1.02344ZM99.4167 3.20111C99.4167 3.02207 99.5623 2.8765 99.7413 2.8765H109.41C109.589 2.8765 109.735 3.02207 109.735 3.20111L109.736 17.0742L106.052 11.8871C106.041 11.8709 106.028 11.8556 106.015 11.8406C106.008 11.8329 106.002 11.8254 105.996 11.817C105.601 11.2652 105.098 10.9612 104.58 10.9612C103.854 10.9612 103.264 11.6635 103.043 11.9672L99.4167 17.0737V3.20111Z" fill="#363636"/>
</g>
<mask id="mask2_9785_1724" style="mask-type:alpha" maskUnits="userSpaceOnUse" x="0" y="0" width="18" height="20">
<path d="M0 0H17.7824V19.4667H0V0Z" fill="black"/>
</mask>
<g mask="url(#mask2_9785_1724)">
<path d="M14.1944 12.2905C13.0288 12.2905 11.9505 12.8498 11.2751 13.796L6.95514 10.9716C7.10196 10.5746 7.17633 10.1582 7.17633 9.73167C7.17633 9.32023 7.10653 8.91705 6.96885 8.53128L11.2971 5.70147C11.9737 6.62827 13.044 7.17633 14.1944 7.17633C16.1729 7.17633 17.7826 5.56678 17.7826 3.58817C17.7826 1.60973 16.1729 0 14.1944 0C12.216 0 10.6063 1.60973 10.6063 3.58817C10.6063 3.73727 10.6157 3.88796 10.6346 4.03724L5.99317 7.07189C5.33152 6.47213 4.48297 6.14368 3.58817 6.14368C1.60973 6.14368 0 7.75323 0 9.73167C0 11.7103 1.60973 13.3198 3.58817 13.3198C4.46697 13.3198 5.30427 13.0012 5.9617 12.4194L10.6298 15.4713C10.6142 15.6076 10.6063 15.7442 10.6063 15.8787C10.6063 17.8571 12.216 19.4667 14.1944 19.4667C16.1729 19.4667 17.7826 17.8571 17.7826 15.8787C17.7826 13.9001 16.1729 12.2905 14.1944 12.2905V12.2905ZM16.0271 15.8787C16.0271 16.8892 15.2049 17.7114 14.1944 17.7114C13.1839 17.7114 12.3617 16.8892 12.3617 15.8787C12.3617 14.8682 13.1839 14.046 14.1944 14.046C15.2049 14.046 16.0271 14.8682 16.0271 15.8787V15.8787ZM12.3617 3.58817C12.3617 2.5775 13.1839 1.75549 14.1944 1.75549C15.2049 1.75549 16.0271 2.5775 16.0271 3.58817C16.0271 4.59866 15.2049 5.42067 14.1944 5.42067C13.1839 5.42067 12.3617 4.59866 12.3617 3.58817V3.58817ZM5.42085 9.73167C5.42085 10.7423 4.59866 11.5645 3.58817 11.5645C2.57767 11.5645 1.75549 10.7423 1.75549 9.73167C1.75549 8.72118 2.57767 7.899 3.58817 7.899C4.59866 7.899 5.42085 8.72118 5.42085 9.73167Z" fill="#363636"/>
</g>
</svg>
