<svg width="21" height="24" viewBox="0 0 21 24" fill="none" xmlns="http://www.w3.org/2000/svg">
<mask id="mask0_9785_1908" style="mask-type:alpha" maskUnits="userSpaceOnUse" x="0" y="0" width="21" height="24">
<path d="M0 0H20.7622V23.1445H0V0Z" fill="black"/>
</mask>
<g mask="url(#mask0_9785_1908)">
<path d="M0.00150617 11.5657C0.00150617 8.96593 0.00460579 6.36622 8.01672e-06 3.76646C-0.00185176 2.72938 0.319786 1.82362 1.05362 1.08043C1.73781 0.387616 2.57647 0.0122 3.54541 0.00879037C7.29864 -0.00448635 11.0519 -9.52207e-05 14.8052 0.0049675C16.4908 0.00729222 18.0082 1.30836 18.2757 2.9694C18.3164 3.22264 18.3424 3.48125 18.3432 3.73748C18.349 5.5022 18.3476 7.26692 18.3455 9.03169C18.3448 9.60011 18.1235 9.92346 17.6623 10.05C17.1759 10.1835 16.6615 9.86446 16.5728 9.36666C16.5474 9.22366 16.5382 9.07602 16.5379 8.93049C16.5357 7.2088 16.5338 5.48712 16.538 3.76548C16.54 2.97477 16.2434 2.35319 15.5124 2.00794C15.2641 1.89068 14.9683 1.82031 14.694 1.81938C11.0182 1.8073 7.34245 1.809 3.66666 1.81277C2.66925 1.8138 1.80135 2.54098 1.80642 3.78439C1.81902 6.89197 1.81065 9.99965 1.81065 13.1073C1.81065 15.1905 1.81277 17.2737 1.80926 19.357C1.80817 20.0037 2.00247 20.5552 2.53039 20.9617C2.87171 21.2245 3.26376 21.333 3.68613 21.335C4.64164 21.3396 5.59715 21.3359 6.55272 21.3366C7.13436 21.3371 7.53571 21.7005 7.54015 22.2286C7.5447 22.7721 7.14392 23.1437 6.5505 23.1442C5.62081 23.1448 4.69113 23.1443 3.76145 23.1443C1.5725 23.1443 0.00662055 21.5854 0.0026427 19.3907C-0.00211006 16.7824 0.00150617 14.174 0.00150617 11.5657Z" fill="#373737"/>
<path d="M18.0804 12.291C19.197 12.3596 20.0744 12.8805 20.5235 13.9604C20.952 14.9906 20.8114 15.9972 20.0347 16.8155C18.8856 18.0262 17.6833 19.1866 16.5033 20.368C16.047 20.8248 15.5987 21.2901 15.128 21.7314C14.958 21.8908 14.7487 22.0457 14.5302 22.1094C13.336 22.4577 12.1359 22.7865 10.9328 23.1025C10.2695 23.2768 9.68556 22.7228 9.83928 22.0548C9.97173 21.4791 10.1622 20.9164 10.3333 20.3498C10.5116 19.7588 10.6844 19.1654 10.8866 18.5823C10.9628 18.3623 11.0764 18.1309 11.2374 17.9684C12.8608 16.3299 14.4961 14.7032 16.1314 13.0764C16.6572 12.5534 17.3068 12.3204 18.0804 12.291V12.291ZM15.9176 15.8513C15.866 15.9002 15.8035 15.9569 15.7438 16.0164C15.0072 16.7505 14.297 17.5137 13.5268 18.2106C12.8635 18.8108 12.362 19.4727 12.2236 20.3761C12.1965 20.553 12.1158 20.7219 12.0468 20.9342C12.6304 20.7701 13.1588 20.6286 13.6817 20.4695C13.8141 20.4292 13.9499 20.354 14.0489 20.2584C14.5186 19.8049 14.9758 19.3385 15.438 18.8773C16.0264 18.2902 16.6153 17.7037 17.1909 17.1301C16.7635 16.7009 16.3531 16.2888 15.9176 15.8513V15.8513ZM18.513 15.7962C18.8319 15.5417 18.9964 15.2195 18.9013 14.7941C18.8168 14.4159 18.5584 14.202 18.1989 14.1258C17.794 14.04 17.4893 14.2323 17.2441 14.5312C17.6685 14.9543 18.0855 15.37 18.513 15.7962Z" fill="#373737"/>
<path d="M9.17573 7.23486C7.62674 7.23486 6.07776 7.23714 4.52877 7.23352C4.08008 7.23242 3.73148 6.94277 3.64248 6.51807C3.55331 6.09234 3.74746 5.68839 4.14173 5.52072C4.27195 5.46534 4.42212 5.43103 4.56328 5.43082C7.63541 5.42587 10.7075 5.42633 13.7797 5.42762C14.3326 5.42788 14.7265 5.81027 14.7244 6.3353C14.7223 6.8596 14.3284 7.23382 13.771 7.23445C12.2392 7.23583 10.7075 7.23486 9.17573 7.23486Z" fill="#373737"/>
<path d="M9.17478 10.8511C7.63442 10.8511 6.09401 10.8525 4.55365 10.8502C4.08525 10.8495 3.73298 10.5675 3.64231 10.1333C3.55345 9.70773 3.7482 9.30369 4.14259 9.13653C4.27292 9.08128 4.42305 9.04726 4.56424 9.04699C7.63639 9.04203 10.7085 9.04256 13.7807 9.04385C14.3331 9.04403 14.7269 9.42725 14.7243 9.95245C14.7218 10.4767 14.328 10.8501 13.7701 10.8506C12.2383 10.852 10.7066 10.8511 9.17478 10.8511Z" fill="#373737"/>
<path d="M7.33234 14.4664C6.42054 14.4664 5.50879 14.4673 4.59698 14.4661C4.0221 14.4653 3.61615 14.0898 3.61621 13.5624C3.61626 13.0351 4.02216 12.6592 4.59709 12.6589C6.42928 12.6579 8.26141 12.658 10.0936 12.6589C10.6694 12.6591 11.0754 13.0347 11.0754 13.5625C11.0754 14.0904 10.6693 14.4654 10.0935 14.4661C9.17312 14.4672 8.25273 14.4664 7.33234 14.4664Z" fill="#373737"/>
</g>
</svg>
