<svg width="21" height="21" viewBox="0 0 21 21" fill="none" xmlns="http://www.w3.org/2000/svg">
<mask id="mask0_9785_1928" style="mask-type:alpha" maskUnits="userSpaceOnUse" x="0" y="0" width="21" height="21">
<path d="M0 0H20.412V20.4028H0V0Z" fill="black"/>
</mask>
<g mask="url(#mask0_9785_1928)">
<path d="M14.8215 2.2925C14.8215 1.91294 14.8148 1.62452 14.8229 1.33651C14.8374 0.817159 15.158 0.484643 15.6275 0.490375C16.082 0.496027 16.404 0.819388 16.4108 1.31645C16.4222 2.16529 16.4138 3.01445 16.4144 3.86345C16.4145 4.19835 16.273 4.45461 15.9776 4.61103C15.6602 4.77908 15.3623 4.71237 15.0863 4.50221C14.1578 3.79515 13.23 3.08729 12.3009 2.3811C10.9254 1.33555 9.47493 1.33898 8.10156 2.38723C6.39393 3.69078 4.68845 4.99728 2.97564 6.29415C2.05285 6.99277 1.6002 7.90752 1.6045 9.0654C1.61278 11.2012 1.60538 13.3371 1.60729 15.4729C1.6092 17.4326 2.97588 18.7957 4.94016 18.7965C8.45565 18.7978 11.9713 18.7981 15.4867 18.7963C17.4242 18.7953 18.7983 17.4262 18.8009 15.494C18.8037 13.3449 18.7975 11.1957 18.8033 9.04661C18.8063 7.9888 18.433 7.11059 17.6221 6.42064C17.2036 6.06464 17.1368 5.5956 17.4359 5.23562C17.7418 4.86752 18.2084 4.84364 18.6332 5.19502C19.7369 6.10811 20.3545 7.29296 20.3804 8.71616C20.4233 11.0767 20.4201 13.439 20.385 15.7999C20.3483 18.263 18.2406 20.3629 15.7759 20.3816C12.0617 20.4097 8.34683 20.4099 4.63256 20.3815C2.15132 20.3626 0.0496345 18.2439 0.0208171 15.7597C-0.00616944 13.4385 -0.00855763 11.1163 0.0233645 8.79521C0.043664 7.32059 0.662762 6.08908 1.82461 5.18077C3.66344 3.74348 5.51834 2.32594 7.39164 0.933941C9.08335 -0.323121 11.3258 -0.301866 13.0339 0.941265C13.6113 1.36159 14.174 1.80213 14.8215 2.2925Z" fill="#373737"/>
<path d="M8.59833 11.1804C8.03496 11.174 7.62594 10.7603 7.62403 10.1949C7.6222 9.64952 8.05828 9.21129 8.60605 9.20803C9.16942 9.20468 9.61706 9.66171 9.59986 10.2225C9.5825 10.788 9.16537 11.1869 8.59833 11.1804Z" fill="#373737"/>
<path d="M12.7829 10.1861C12.79 10.7485 12.381 11.1703 11.8187 11.1804C11.2512 11.1907 10.8267 10.7916 10.8091 10.2315C10.7912 9.65485 11.2149 9.21742 11.7931 9.21582C12.3563 9.21431 12.7759 9.62556 12.7829 10.1861Z" fill="#373737"/>
<path d="M8.59534 12.4005C9.15959 12.3922 9.58453 12.7973 9.59886 13.3571C9.61319 13.9196 9.20855 14.3486 8.64829 14.365C8.06406 14.3821 7.62869 13.9673 7.62502 13.3902C7.62144 12.8289 8.03333 12.4088 8.59534 12.4005Z" fill="#373737"/>
<path d="M12.7835 13.3836C12.7835 13.9454 12.3702 14.3606 11.8065 14.365C11.2244 14.3697 10.7985 13.9416 10.8098 13.3635C10.8207 12.8028 11.2425 12.3954 11.8067 12.4004C12.369 12.4054 12.7835 12.8227 12.7835 13.3836Z" fill="#373737"/>
</g>
</svg>
