<svg width="76" height="75" viewBox="0 0 76 75" fill="none" xmlns="http://www.w3.org/2000/svg">
<ellipse cx="38" cy="37.5" rx="38" ry="37.5" fill="#EEEEEE"/>
<ellipse cx="38" cy="37.5" rx="30" ry="29.5" fill="#EF6100"/>
<g transform="translate(25, 24)">
<path d="M18.1578 5.26986C18.1827 8.13619 15.8262 10.5087 12.9292 10.5342C10.0503 10.5595 7.6546 8.19819 7.64262 5.29515C7.63065 2.35833 9.93906 0.0618948 12.7882 0.00125399C15.8755 -0.064408 18.1988 2.45836 18.1578 5.26986ZM9.76119 7.71171C9.7946 7.66246 9.82647 7.61553 9.85833 7.5686C10.361 6.82392 11.0497 6.40774 11.9589 6.39692C12.6055 6.3892 13.2525 6.39596 13.8992 6.39692C14.3371 6.3975 14.7586 6.49754 15.1047 6.75884C15.4595 7.02651 15.7691 7.35424 16.0968 7.65435C17.2192 6.31929 17.2648 3.90969 15.693 2.38845C14.1325 0.878614 11.6295 0.88209 10.0924 2.40564C8.51767 3.96666 8.60805 6.35057 9.76119 7.71171ZM12.8842 7.65628C12.5485 7.65821 12.2125 7.64894 11.877 7.66034C11.4217 7.67598 10.928 8.05238 10.8054 8.48266C10.7865 8.5489 10.8357 8.68331 10.8929 8.71518C12.2264 9.45812 13.5659 9.45967 14.9081 8.73005C15.0323 8.66246 15.0448 8.59119 14.9995 8.46701C14.832 8.00931 14.3855 7.67212 13.8913 7.65802C13.5559 7.64856 13.2198 7.65628 12.8842 7.65628Z" fill="white"/>
<path d="M25.8164 20.5456C25.816 23.4602 23.4458 25.8146 20.514 25.8128C17.6328 25.8111 15.2493 23.4171 15.2866 20.4967C15.324 17.5574 17.6562 15.2857 20.5895 15.2774C23.4503 15.2692 25.8168 17.6655 25.8164 20.5456ZM23.6909 22.9984C24.9076 21.5371 24.9012 19.1288 23.2759 17.602C21.7 16.1215 19.1575 16.1905 17.6589 17.7687C16.1475 19.3602 16.2765 21.6678 17.4173 22.9942C17.992 22.0954 18.7141 21.6827 19.6612 21.6771C20.2157 21.6738 20.7703 21.6858 21.3246 21.6742C22.3667 21.6524 23.1424 22.0983 23.6909 22.9984ZM22.6892 23.9181C22.5271 23.3069 22.0803 22.9438 21.4754 22.9374C20.8626 22.9307 20.2496 22.931 19.6369 22.937C19.0225 22.943 18.5656 23.3154 18.4148 23.9187C19.6598 24.7599 21.4308 24.7636 22.6892 23.9181Z" fill="white"/>
<path d="M5.28618 25.8127C2.39628 25.8144 0.000772601 23.4542 1.07091e-07 20.6049C-0.000579263 17.6387 2.34973 15.2536 5.29313 15.2795C8.20408 15.3054 10.5117 17.6082 10.532 20.5365C10.5521 23.4332 8.1643 25.8111 5.28618 25.8127ZM2.12339 23.0006C2.68364 22.0827 3.47796 21.6422 4.5386 21.6733C5.10097 21.6897 5.66412 21.6783 6.22688 21.6773C6.76531 21.6765 7.25719 21.8363 7.66913 22.1732C7.95321 22.406 8.18902 22.698 8.44471 22.9618C9.69634 21.4199 9.5011 18.9716 7.99995 17.6095C6.40301 16.1605 3.99379 16.182 2.48782 17.6509C0.931628 19.1686 0.910577 21.524 2.12339 23.0006ZM7.41131 23.9133C7.21258 23.3258 6.802 22.9519 6.30838 22.9421C5.61198 22.9282 4.9148 22.927 4.2184 22.9425C3.69851 22.9542 3.21357 23.4143 3.14038 23.9255C4.38487 24.7626 6.14519 24.7607 7.41131 23.9133Z" fill="white"/>
<path d="M8.18612 15.4256C7.70388 15.419 7.42424 14.9366 7.66294 14.4924C7.9281 13.999 8.21605 13.5181 8.49588 13.0328C8.91747 12.3013 9.33984 11.5701 9.76393 10.8399C9.89758 10.6097 10.1011 10.49 10.368 10.5137C10.6316 10.5371 10.8472 10.6684 10.8995 10.9341C10.9321 11.1 10.9236 11.3138 10.8441 11.4561C10.162 12.6742 9.4615 13.8822 8.76085 15.0898C8.63706 15.3034 8.45282 15.4426 8.18612 15.4256Z" fill="white"/>
<path d="M18.1853 14.6713C18.16 14.9791 17.9907 15.2026 17.6965 15.2909C17.42 15.3737 17.1477 15.2588 16.9787 14.9693C16.5357 14.2105 16.0986 13.4483 15.6591 12.6876C15.4793 12.376 15.2954 12.0667 15.1201 11.7524C14.9165 11.388 15.0009 11.0182 15.3219 10.8334C15.6454 10.6474 15.997 10.7596 16.2118 11.1298C16.829 12.1937 17.4433 13.2596 18.0542 14.3274C18.1145 14.4326 18.1425 14.5562 18.1853 14.6713Z" fill="white"/>
<path d="M12.8936 19.8974C12.5158 19.8974 12.1379 19.9061 11.7605 19.8946C11.4687 19.8857 11.2472 19.7482 11.146 19.4623C11.056 19.2084 11.1244 18.9521 11.3413 18.7885C11.4357 18.7175 11.5649 18.6555 11.6792 18.6539C12.493 18.6421 13.3071 18.6394 14.1209 18.6508C14.4446 18.6555 14.6636 18.8928 14.6875 19.2099C14.7122 19.5363 14.5203 19.8356 14.1997 19.8613C13.7669 19.8961 13.3293 19.87 12.8938 19.87Z" fill="white"/>
</g>
</svg>
