<svg width="76" height="75" viewBox="0 0 76 75" fill="none" xmlns="http://www.w3.org/2000/svg">
<ellipse cx="38" cy="37.5" rx="38" ry="37.5" fill="#EEEEEE"/>
<ellipse cx="38" cy="37.5" rx="30" ry="29.5" fill="#EF6100"/>
<mask id="mask0_9795_2057" style="mask-type:alpha" maskUnits="userSpaceOnUse" x="20" y="21" width="34" height="34">
<path d="M20 21H53.3085V54.3062H20V21Z" fill="black"/>
</mask>
<g mask="url(#mask0_9795_2057)">
<path d="M49.5833 45.6769C49.0928 44.4621 48.6047 43.2908 48.1521 42.1059C48.0414 41.8161 47.9706 41.4703 48.0155 41.1702C48.1034 40.5826 48.6119 40.1796 49.1879 40.1329C49.7369 40.0883 50.2682 40.4294 50.5033 41.0031C50.9771 42.1593 51.4405 43.3197 51.9073 44.4786C52.3339 45.5377 52.7491 46.6014 53.1884 47.6552C53.5975 48.6364 52.8097 49.5757 51.9133 49.4882C51.6639 49.4638 51.4167 49.3522 51.1821 49.2495C49.0297 48.3076 46.8814 47.3563 44.7274 46.4183C44.597 46.3616 44.4175 46.3561 44.2779 46.3923C43.5082 46.5923 42.7424 46.8078 41.9792 47.0315C41.8686 47.0639 41.747 47.1475 41.6848 47.243C40.0584 49.7374 37.7769 51.3272 34.9263 52.1105C32.4624 52.7876 30.0115 52.6973 27.5915 51.8752C27.3953 51.8086 27.237 51.8143 27.0464 51.8994C25.334 52.6632 23.6194 53.4223 21.8996 54.1694C21.0682 54.5306 20.2457 54.1549 20.0577 53.2959C19.9938 53.0042 20.0611 52.647 20.1721 52.3599C20.7199 50.9435 21.2983 49.5388 21.8769 48.1346C21.9686 47.912 21.9557 47.7513 21.8136 47.5461C20.5236 45.6825 19.9112 43.6076 20.0104 41.3472C20.1059 39.1716 20.8592 37.2228 22.1937 35.4994C22.896 34.5924 23.7333 33.8316 24.663 33.1647C24.767 33.0901 24.8616 32.9407 24.8783 32.815C25.1127 31.0527 25.6377 29.3927 26.556 27.8618C27.644 26.0482 29.0763 24.5693 30.8474 23.4187C32.6634 22.2389 34.6421 21.499 36.7893 21.1867C38.0298 21.0063 39.274 20.9302 40.5122 21.0787C45.7107 21.702 49.7198 24.141 52.1174 28.9034C53.1027 30.8607 53.4605 32.9719 53.2508 35.1656C53.222 35.4668 53.2148 35.7728 53.1533 36.0673C53.007 36.7674 52.3539 37.2356 51.7058 37.1321C50.9687 37.0143 50.4781 36.3572 50.5871 35.5989C50.9707 32.9303 50.3336 30.5132 48.7627 28.3461C47.5552 26.6806 45.9689 25.4693 44.0838 24.6504C42.0585 23.7706 39.9376 23.4408 37.7504 23.6809C34.6734 24.0186 32.0345 25.2732 29.9534 27.6078C28.7869 28.9163 27.9997 30.4301 27.6355 32.1419C27.0996 34.6608 27.5706 37.0198 28.9268 39.1909C30.7178 42.0581 33.3276 43.777 36.6119 44.4609C38.1146 44.7738 39.649 44.8204 41.1608 44.5C42.0841 44.3043 42.9934 44.0288 43.892 43.7368C44.3768 43.5794 44.8068 43.5903 45.2649 43.7975C46.6493 44.4235 48.0412 45.0328 49.4306 45.6476C49.4592 45.6603 49.4934 45.6602 49.5833 45.6769ZM23.7114 50.5288C24.7168 50.0838 25.6439 49.679 26.5659 49.2631C27.0132 49.0613 27.4406 49.07 27.9132 49.217C28.7433 49.4751 29.5828 49.7571 30.4391 49.8671C32.7457 50.1634 34.9083 49.6708 36.8787 48.4242C37.3735 48.111 37.8175 47.7176 38.2849 47.361L38.2501 47.2799C35.076 47.0844 32.2145 46.0617 29.7414 44.0479C27.2585 42.0263 25.6662 39.4478 25.0087 36.2749C24.9354 36.3414 24.8868 36.3819 24.8423 36.4264C22.0887 39.1785 21.8508 43.5151 24.3076 46.5406C24.7843 47.1277 24.8862 47.7059 24.5751 48.3962C24.2712 49.0703 24.0173 49.767 23.7114 50.5288Z" fill="white"/>
<path d="M35.0922 34.1964C35.0986 34.9081 34.5145 35.5047 33.8049 35.5112C33.0933 35.5176 32.4966 34.9335 32.4903 34.2239C32.4838 33.5127 33.0684 32.9156 33.7774 32.9092C34.4891 32.9027 35.0857 33.487 35.0922 34.1964Z" fill="white"/>
<path d="M38.9906 32.9092C39.7001 32.9065 40.2946 33.4958 40.2972 34.2044C40.2998 34.914 39.7107 35.5085 39.002 35.5111C38.2924 35.5138 37.6979 34.9244 37.6953 34.2158C37.6927 33.5063 38.2819 32.9118 38.9906 32.9092Z" fill="white"/>
<path d="M44.1823 35.5112C43.4747 35.5029 42.8911 34.9029 42.8995 34.1921C42.9078 33.4845 43.5078 32.9009 44.2186 32.9093C44.9262 32.9176 45.5097 33.5177 45.5013 34.2284C45.493 34.936 44.893 35.5196 44.1823 35.5112Z" fill="white"/>
</g>
</svg>
